<svg width="89" height="22" viewBox="0 0 89 22" fill="none" xmlns="http://www.w3.org/2000/svg">
<path d="M12.5 21.875V9.375H15.625V21.875H12.5ZM0 21.875V0H3.125V6.25H12.5V9.375H3.125V21.875H0Z" fill="black"/>
<path d="M25 3.125V0H28.125V3.125H25ZM34.375 18.75V21.875H18.75V18.75H25V9.375H21.875V6.25H28.125V18.75H34.375Z" fill="black"/>
<path d="M51.125 18.75V21.875H41.75V18.75H51.125ZM41.75 18.75H38.625V9.375H35.5V6.25H38.625V0H41.75V6.25H48V9.375H41.75V18.75Z" fill="black"/>
<path d="M66.75 12.5V9.375H69.875V12.5H66.75ZM66.75 18.75V21.875H57.375V18.75H66.75ZM66.75 18.75V15.625H69.875V18.75H66.75ZM57.375 18.75H54.25V9.375H57.375V18.75ZM66.75 9.375H57.375V6.25H66.75V9.375Z" fill="black"/>
<path d="M85.5 21.875V9.375H88.625V21.875H85.5ZM73 21.875V0H76.125V6.25H85.5V9.375H76.125V21.875H73Z" fill="black"/>
</svg>
